<svg width="512" height="512" viewBox="0 0 512 512" fill="none" xmlns="http://www.w3.org/2000/svg">
<path fill-rule="evenodd" clip-rule="evenodd" d="M61 94C33.3858 94 11 116.386 11 144V367.634C11 395.248 33.3858 417.634 61 417.634H451C478.614 417.634 501 395.248 501 367.634V144C501 116.386 478.614 94 451 94H61ZM132.933 209.343C148.592 209.343 161.286 196.615 161.286 180.915C161.286 165.215 148.592 152.488 132.933 152.488C117.274 152.488 104.58 165.215 104.58 180.915C104.58 196.615 117.274 209.343 132.933 209.343ZM161.286 256.721C161.286 272.421 148.592 285.149 132.933 285.149C117.274 285.149 104.58 272.421 104.58 256.721C104.58 241.021 117.274 228.294 132.933 228.294C148.592 228.294 161.286 241.021 161.286 256.721ZM215.811 209.343C231.47 209.343 244.164 196.615 244.164 180.915C244.164 165.215 231.47 152.488 215.811 152.488C200.152 152.488 187.458 165.215 187.458 180.915C187.458 196.615 200.152 209.343 215.811 209.343ZM244.164 256.721C244.164 272.421 231.47 285.149 215.811 285.149C200.152 285.149 187.458 272.421 187.458 256.721C187.458 241.021 200.152 228.294 215.811 228.294C231.47 228.294 244.164 241.021 244.164 256.721ZM298.699 209.343C314.358 209.343 327.052 196.616 327.052 180.916C327.052 165.216 314.358 152.489 298.699 152.489C283.04 152.489 270.346 165.216 270.346 180.916C270.346 196.616 283.04 209.343 298.699 209.343ZM327.052 256.722C327.052 272.422 314.358 285.15 298.699 285.15C283.04 285.15 270.346 272.422 270.346 256.722C270.346 241.022 283.04 228.295 298.699 228.295C314.358 228.295 327.052 241.022 327.052 256.722ZM381.577 285.15C397.236 285.15 409.93 272.422 409.93 256.722C409.93 241.022 397.236 228.295 381.577 228.295C365.918 228.295 353.224 241.022 353.224 256.722C353.224 272.422 365.918 285.15 381.577 285.15ZM409.93 180.916C409.93 196.616 397.236 209.343 381.577 209.343C365.918 209.343 353.224 196.616 353.224 180.916C353.224 165.216 365.918 152.489 381.577 152.489C397.236 152.489 409.93 165.216 409.93 180.916ZM171.401 325.792C163.117 325.792 156.401 332.508 156.401 340.792V357.442C156.401 365.726 163.117 372.442 171.401 372.442H342.054C350.338 372.442 357.054 365.726 357.054 357.442V340.792C357.054 332.508 350.338 325.792 342.054 325.792H171.401Z" fill="white"/>
</svg>
